<?xml version="1.0" standalone="no"?>
<!DOCTYPE svg PUBLIC "-//W3C//DTD SVG 20010904//EN"
 "http://www.w3.org/TR/2001/REC-SVG-20010904/DTD/svg10.dtd">
<svg version="1.0" xmlns="http://www.w3.org/2000/svg"
 width="261.000000pt" height="261.000000pt" viewBox="0 0 261.000000 261.000000"
 preserveAspectRatio="xMidYMid meet">
<metadata>
Created by potrace 1.11, written by Peter Selinger 2001-2013
</metadata>
<g transform="translate(0.000000,261.000000) scale(0.100000,-0.100000)"
fill="#000000" stroke="none">
<path d="M481 2487 c-6 -8 -9 -16 -7 -18 2 -2 7 -32 10 -67 16 -152 97 -257
213 -278 15 -3 30 -7 35 -10 4 -3 47 -5 94 -5 l86 0 -78 -54 c-198 -135 -369
-329 -469 -531 -62 -127 -76 -173 -82 -269 -7 -115 17 -212 88 -361 173 -360
328 -550 527 -642 31 -15 60 -27 65 -28 4 -1 8 -2 10 -4 10 -8 58 -13 152 -16
98 -2 125 1 247 31 75 19 176 39 225 45 156 19 261 56 363 127 85 58 215 213
268 319 43 84 88 293 98 449 2 39 6 90 8 115 24 248 19 282 -62 405 -99 148
-124 171 -389 347 -258 173 -330 214 -425 243 -41 13 -55 22 -53 34 21 111 16
151 -19 151 -38 0 -46 -19 -62 -148 -4 -37 -10 -37 -72 -9 -99 46 -114 48
-423 61 -71 3 -127 12 -169 26 -67 23 -135 63 -144 86 -7 18 -20 18 -35 1z"/>
</g>
</svg>
