<svg id="Layer_1" data-name="Layer 1" xmlns="http://www.w3.org/2000/svg" viewBox="0 0 222 220"><defs><style>.cls-1{fill:#fff;}.cls-2{fill:#6b710f;}</style></defs><title>orangevec</title><path class="cls-1" d="M92.5,17c-22.35.52-42.82,12.63-58.13,28.27a116.13,116.13,0,0,0-19.58,26.5A97.56,97.56,0,0,0,5.15,101c-3.57,20.77-2.22,43.43,6.65,62.76a79.22,79.22,0,0,0,17.64,24.52,88.32,88.32,0,0,0,23.92,15.41A132.43,132.43,0,0,0,84,213.85,145.62,145.62,0,0,0,118.81,216a121,121,0,0,0,32.92-6.12,98.05,98.05,0,0,0,27.75-15.22,101.13,101.13,0,0,0,35-51.36c6.08-21.25,4.35-44.49-4-64.87A99.21,99.21,0,0,0,193,50.18,95.72,95.72,0,0,0,168.5,30.7C150,20.2,128.17,14.3,106.84,15.2A87.12,87.12,0,0,0,92.1,17.05c-1.89.41-1.09,3.3.8,2.9,20.13-4.34,41.71-.84,60.61,6.82a106.33,106.33,0,0,1,26.74,15.46,90.14,90.14,0,0,1,20.33,23.23,99.09,99.09,0,0,1,14,62.1c-2.26,20.57-11.82,39.93-26,54.86a98.75,98.75,0,0,1-24.37,18.68,97.88,97.88,0,0,1-29.42,10,141.86,141.86,0,0,1-33.75,1.8,119.39,119.39,0,0,1-32-6.13,130.65,130.65,0,0,1-26.89-12.56,72.18,72.18,0,0,1-20.13-19.16A79.61,79.61,0,0,1,9.53,148.2a109.35,109.35,0,0,1-3.07-31,111.84,111.84,0,0,1,5.37-30.74A95.72,95.72,0,0,1,26.09,59.58c12.63-17.09,30.48-31.82,51.3-37.39A64.34,64.34,0,0,1,92.5,20c1.93,0,1.93-3,0-3Z"/><path class="cls-1" d="M54,186.8a1.5,1.5,0,0,0,0-3,1.5,1.5,0,0,0,0,3Z"/><path class="cls-1" d="M45.62,178.37a1.5,1.5,0,0,0,0-3,1.5,1.5,0,0,0,0,3Z"/><path class="cls-1" d="M38,172.24a1.5,1.5,0,0,0,0-3,1.5,1.5,0,0,0,0,3Z"/><path class="cls-1" d="M53.28,172.24a1.5,1.5,0,0,0,0-3,1.5,1.5,0,0,0,0,3Z"/><path class="cls-1" d="M33.83,161.08l0,0-.23-.3,0,0-.15-.36v0l-.05-.4h0l.05-.4v0l.15-.36v0l.23-.3,0,0,.3-.23a.2.2,0,0,1-.08,0l.36-.15-.24.09a3.65,3.65,0,0,0-.41.17,2.34,2.34,0,0,0-.34.26l0,0s-.13.18-.12.15-.09.11-.12.16h0c0,.05-.24.56-.08.18L33,160h0a1.84,1.84,0,0,0-.06.41,2,2,0,0,0,.06.42h0c0,.06.21.48.08.18,0-.1,0,.13.08.19v0l.24.31h0a1.14,1.14,0,0,0,.48.31,1.36,1.36,0,0,0,1.16,0,1.14,1.14,0,0,0,.48-.31l.24-.3a1.57,1.57,0,0,0,.2-.76l0-.4a1.49,1.49,0,0,0-.39-.66l0,0,.24.3,0,0,.15.36v0l.05.39h0l-.05.4v0l-.16.36,0,0-.24.3,0,0-.3.24.08-.05-.35.15a2.18,2.18,0,0,0,.23-.09,2.57,2.57,0,0,0,.41-.17,1.9,1.9,0,0,0,.34-.26h0l.12-.16.12-.16h0s.23-.56.08-.18l.07-.18h0a1.4,1.4,0,0,0,.06-.41,1.52,1.52,0,0,0-.06-.42h0c0-.05-.2-.48-.08-.18.05.1,0-.13-.07-.19l0,0S36,159,36,159h0l0,0a1,1,0,0,0-.48-.31,1.15,1.15,0,0,0-.58-.13,1.72,1.72,0,0,0-1.06.44l-.23.3a1.48,1.48,0,0,0-.21.76l.06.4a1.57,1.57,0,0,0,.38.66Z"/><path class="cls-1" d="M38.43,148.06l0,0-.23-.3,0,0-.15-.35s0,0,0,0l-.06-.4v0l.06-.4s0,0,0,0l.15-.36a.05.05,0,0,1,0,0l.24-.31-.06.07a1.4,1.4,0,0,0-.28.36,1.56,1.56,0,0,0-.21.79,1.3,1.3,0,0,0,0,.44,1.81,1.81,0,0,0,.46.76,1.14,1.14,0,0,0,.48.31,1.36,1.36,0,0,0,1.16,0,1.14,1.14,0,0,0,.48-.31l.24-.3a1.57,1.57,0,0,0,.2-.76l0-.4a1.49,1.49,0,0,0-.39-.66l0,0,.23.3,0,0,.15.35s0,0,0,0l.06.4a0,0,0,0,1,0,0l-.06.4s0,0,0,0l-.15.36a.05.05,0,0,1,0,0l-.24.31.06-.07a1.4,1.4,0,0,0,.28-.36,1.56,1.56,0,0,0,.21-.79,1.3,1.3,0,0,0-.05-.44,1.81,1.81,0,0,0-.46-.76,1.14,1.14,0,0,0-.48-.31,1.36,1.36,0,0,0-1.16,0,1.08,1.08,0,0,0-.48.31l-.24.3a1.57,1.57,0,0,0-.2.76l0,.4a1.49,1.49,0,0,0,.39.66Z"/><path class="cls-1" d="M31.06,149.27a1.5,1.5,0,0,0,0-3,1.5,1.5,0,0,0,0,3Z"/><path class="cls-1" d="M44.85,160a1.5,1.5,0,0,0,0-3,1.5,1.5,0,0,0,0,3Z"/><path class="cls-1" d="M25.7,166.88a1.5,1.5,0,0,0,0-3,1.5,1.5,0,0,0,0,3Z"/><path class="cls-1" d="M23.4,153.86a1.5,1.5,0,0,0,0-3,1.5,1.5,0,0,0,0,3Z"/><path class="cls-1" d="M22.64,140.07a1.5,1.5,0,0,0,0-3,1.5,1.5,0,0,0,0,3Z"/><path class="cls-1" d="M31.06,138.54a1.5,1.5,0,0,0,0-3,1.5,1.5,0,0,0,0,3Z"/><path class="cls-1" d="M28.77,132.41a1.5,1.5,0,0,0,0-3,1.5,1.5,0,0,0,0,3Z"/><path class="cls-1" d="M36.43,179.14a1.5,1.5,0,0,0,0-3,1.5,1.5,0,0,0,0,3Z"/><path class="cls-1" d="M45.62,188.33a1.5,1.5,0,0,0,0-3,1.5,1.5,0,0,0,0,3Z"/><path class="cls-1" d="M64,197.52a1.5,1.5,0,0,0,0-3,1.5,1.5,0,0,0,0,3Z"/><path class="cls-1" d="M76.26,198.29a1.5,1.5,0,0,0,0-3,1.5,1.5,0,0,0,0,3Z"/><path class="cls-1" d="M64.77,187.56a1.5,1.5,0,0,0,0-3,1.5,1.5,0,0,0,0,3Z"/><path class="cls-1" d="M58.64,180.67a1.5,1.5,0,0,0,0-3,1.5,1.5,0,0,0,0,3Z"/><path class="cls-1" d="M88.51,200.59a1.5,1.5,0,0,0,0-3,1.5,1.5,0,0,0,0,3Z"/><path class="cls-1" d="M82.38,188.33a1.5,1.5,0,0,0,0-3,1.5,1.5,0,0,0,0,3Z"/><path class="cls-1" d="M72.43,175.31a1.5,1.5,0,0,0,0-3,1.5,1.5,0,0,0,0,3Z"/><path class="cls-1" d="M62.47,162.29a1.5,1.5,0,0,0,0-3,1.5,1.5,0,0,0,0,3Z"/><path class="cls-1" d="M48.68,153.1a1.5,1.5,0,0,0,0-3,1.5,1.5,0,0,0,0,3Z"/><path class="cls-1" d="M19.57,127.05a1.5,1.5,0,0,0,0-3,1.5,1.5,0,0,0,0,3Z"/><path class="cls-1" d="M24.17,112.5a1.5,1.5,0,0,0,0-3,1.5,1.5,0,0,0,0,3Z"/><path class="cls-1" d="M42.55,135.48a1.5,1.5,0,0,0,0-3,1.5,1.5,0,0,0,0,3Z"/><path class="cls-1" d="M35.66,120.93a1.5,1.5,0,0,0,0-3,1.5,1.5,0,0,0,0,3Z"/><path class="cls-1" d="M59.4,150a1.5,1.5,0,0,0,0-3,1.5,1.5,0,0,0,0,3Z"/><path class="cls-1" d="M85.45,170a1.5,1.5,0,0,0,0-3,1.5,1.5,0,0,0,0,3Z"/><path class="cls-1" d="M76.26,154.63a1.5,1.5,0,0,0,0-3,1.5,1.5,0,0,0,0,3Z"/><path class="cls-1" d="M64.77,135.48a1.5,1.5,0,0,0,0-3,1.5,1.5,0,0,0,0,3Z"/><path class="cls-1" d="M54,131.65a1.5,1.5,0,0,0,0-3,1.5,1.5,0,0,0,0,3Z"/><path class="cls-1" d="M60.94,114a1.5,1.5,0,0,0,0-3,1.5,1.5,0,0,0,0,3Z"/><path class="cls-1" d="M102.3,200.59a1.5,1.5,0,0,0,0-3,1.5,1.5,0,0,0,0,3Z"/><path class="cls-1" d="M98.47,189.1a1.5,1.5,0,0,0,0-3,1.5,1.5,0,0,0,0,3Z"/><path class="cls-1" d="M117.62,201.35a1.5,1.5,0,0,0,0-3,1.5,1.5,0,0,0,0,3Z"/><path class="cls-1" d="M81.62,137a1.5,1.5,0,0,0,0-3,1.5,1.5,0,0,0,0,3Z"/><path class="cls-1" d="M74.72,124a1.5,1.5,0,0,0,0-3,1.5,1.5,0,0,0,0,3Z"/><path class="cls-2" d="M96.09,25.18C93,15.84,82.13,11.34,72.3,11s-19.57,2.36-29.4,2c-4.82-.18-8.4-.51-14.45-.34"/><path class="cls-2" d="M97.54,24.78c-2.86-8.32-11-13-19.3-14.59-11-2.1-22,1.26-33,1.35-5.62.05-11.21-.52-16.83-.37-1.92.05-1.93,3.05,0,3,4.57-.12,9.12.12,13.68.31a103.72,103.72,0,0,0,16.42-1.05c9.22-1.09,18.92-2,27.42,2.58a17.63,17.63,0,0,1,8.67,9.57c.62,1.81,3.52,1,2.9-.8Z"/><path class="cls-2" d="M28.5,12.5A67.17,67.17,0,0,0,63.87,26.44a130.42,130.42,0,0,0,14.53.16c6.09-.15,13,.06,19.1-.1"/><path class="cls-2" d="M27.44,13.56A68.84,68.84,0,0,0,51.92,25.83a67.87,67.87,0,0,0,13.65,2.23c5.08.31,10.17.06,15.26,0C86.39,28,92,28.14,97.5,28c1.93-.05,1.93-3.05,0-3-4.72.12-9.45,0-14.17,0-4.88,0-9.75.27-14.62.15a66.6,66.6,0,0,1-26.34-6,64.85,64.85,0,0,1-12.81-7.77c-1.5-1.18-3.64.93-2.12,2.12Z"/><path class="cls-2" d="M97.5,25.5c-1.15-6.25-.46-13.63-.28-20a1.42,1.42,0,0,1,.41-1.17,1.41,1.41,0,0,1,1.07-.09l8.5,1.47c-1.86,6.75-6.7,13.77-9.7,20.77"/><path class="cls-2" d="M99,25.1a65.08,65.08,0,0,1-.44-14.16c0-1.11.09-2.22.14-3.33l.06-1.71c0-.25.18-.92-.19-.42s0,.26.42.33l7.86,1.37-1-1.84c-2,7.25-6.57,13.53-9.55,20.4C95.45,27.5,98,29,98.8,27.26c3.08-7.12,7.72-13.61,9.85-21.13a1.51,1.51,0,0,0-1.05-1.84l-4.67-.81a36.29,36.29,0,0,0-4.51-.76c-3.22-.17-2.72,3.7-2.81,5.86-.25,5.77-.57,11.59.44,17.32.34,1.9,3.23,1.09,2.9-.8Z"/><path class="cls-2" d="M42.61,16a27.23,27.23,0,0,0,6.59,1.19l7.15.67L56,14.89c-2.33.38-4.66-.64-6.8-1.43A16.19,16.19,0,0,0,42.2,12.1c-1.55.13-2.19,2.64-.4,3a104.28,104.28,0,0,1,20.73,5.72l.79-2.9a152.18,152.18,0,0,1-17.19-4.45l-.8,2.89a177.83,177.83,0,0,1,25.34,6.83l.79-2.9c-7-2.23-14-4.4-21.32-5.36v3A93.32,93.32,0,0,1,72,23.66a32.65,32.65,0,0,0,10.83,2.47c3.9.16,7.8.18,11.71.27,1.93,0,1.93-3,0-3-3.83-.08-7.65-.12-11.47-.26a33.27,33.27,0,0,1-11.14-2.71,93,93,0,0,0-21.78-5.55c-.81-.11-1.49.76-1.5,1.5a1.54,1.54,0,0,0,1.5,1.5c7,.92,13.8,3.11,20.53,5.26,1.85.59,2.6-2.26.79-2.9a179,179,0,0,0-25.33-6.82,1.5,1.5,0,0,0-.8,2.89,154.55,154.55,0,0,0,17.2,4.46,1.5,1.5,0,0,0,.79-2.9A105.36,105.36,0,0,0,42.6,12.15l-.4,2.95c2.55-.22,4.89.8,7.24,1.65a14.22,14.22,0,0,0,7.31,1c1.79-.28,1.16-2.8-.4-2.94l-6.68-.63a26.21,26.21,0,0,1-6.27-1.12c-1.82-.64-2.61,2.26-.79,2.89Z"/><path class="cls-2" d="M87.19,21.21l-2.52.05a1.52,1.52,0,0,0-1.06.44l-.23.3a1.12,1.12,0,0,0-.18.56,1.37,1.37,0,0,0,.18,1,1.53,1.53,0,0,0,.89.69,5.17,5.17,0,0,0,2.47.12,1.06,1.06,0,0,0,.51-.27,1,1,0,0,0,.38-.42,1.49,1.49,0,0,0,.15-1.15,1.46,1.46,0,0,0-.69-.9l-.35-.15a1.55,1.55,0,0,0-.8,0h-.09l.39-.05a4,4,0,0,1-1,0l.4.05a3.87,3.87,0,0,1-.59-.13l-.4,3,2.52-.05a1.56,1.56,0,0,0,1.06-.44,1.52,1.52,0,0,0,.44-1.06,1.5,1.5,0,0,0-.44-1.06,1.52,1.52,0,0,0-1.06-.44Z"/><path class="cls-2" d="M84.81,21.54c-2.41-.31-4.81-.72-7.2-1.21-1.19-.25-2.37-.52-3.55-.81q-.89-.21-1.77-.45c-.18-.05-.74-.13-.84-.3L70.55,21c.08,0,0,0-.11,0a1.55,1.55,0,0,0,2.06-.54,1.52,1.52,0,0,0-.54-2,3.06,3.06,0,0,0-2.2-.27,1.52,1.52,0,0,0-.9,2.21c.68,1.18,2,1.49,3.18,1.81,1.4.37,2.81.7,4.23,1,2.82.6,5.68,1.06,8.54,1.43a1.51,1.51,0,0,0,1.5-1.5,1.53,1.53,0,0,0-1.5-1.5Z"/></svg>
