<svg id="Layer_1" data-name="Layer 1" xmlns="http://www.w3.org/2000/svg" xmlns:xlink="http://www.w3.org/1999/xlink" viewBox="0 0 1920 3387"><defs><style>.cls-1,.cls-4,.cls-5{fill:none;}.cls-2{clip-path:url(#clip-path);}.cls-3{fill:#f9d68f;}.cls-4,.cls-5{stroke:#fff;stroke-linecap:round;stroke-miterlimit:10;}.cls-4{stroke-width:9.83px;}.cls-5{stroke-width:11.97px;}</style><clipPath id="clip-path"><rect class="cls-1" x="0.5" y="-0.5" width="1920" height="3387"/></clipPath></defs><title>orangetexture</title><g class="cls-2"><rect class="cls-3" width="1920" height="3387"/><line class="cls-4" x1="1242.27" y1="1466.01" x2="1210.14" y2="1504.69"/><line class="cls-4" x1="1179.15" y1="1413.59" x2="1147.03" y2="1452.27"/><line class="cls-4" x1="1242.09" y1="1403.1" x2="1209.97" y2="1441.79"/><line class="cls-4" x1="1178.95" y1="1478.79" x2="1146.82" y2="1517.47"/><line class="cls-4" x1="1446.62" y1="1219.98" x2="1414.5" y2="1258.66"/><line class="cls-4" x1="1383.51" y1="1167.56" x2="1351.39" y2="1206.24"/><line class="cls-4" x1="1446.45" y1="1157.07" x2="1414.32" y2="1195.75"/><line class="cls-4" x1="1383.3" y1="1232.76" x2="1351.18" y2="1271.44"/><line class="cls-4" x1="1546.93" y1="1485.49" x2="1514.8" y2="1524.17"/><line class="cls-4" x1="1483.82" y1="1433.08" x2="1451.69" y2="1471.76"/><line class="cls-4" x1="1546.75" y1="1422.59" x2="1514.63" y2="1461.27"/><line class="cls-4" x1="1483.61" y1="1498.28" x2="1451.48" y2="1536.96"/><line class="cls-4" x1="1152.26" y1="1221.94" x2="1120.13" y2="1260.62"/><line class="cls-4" x1="1089.15" y1="1169.53" x2="1057.02" y2="1208.21"/><line class="cls-4" x1="1152.08" y1="1159.04" x2="1119.96" y2="1197.72"/><line class="cls-4" x1="1088.94" y1="1234.73" x2="1056.81" y2="1273.41"/><line class="cls-4" x1="1692.8" y1="953.49" x2="1660.66" y2="992.16"/><line class="cls-4" x1="1629.71" y1="901.06" x2="1597.57" y2="939.72"/><line class="cls-4" x1="1692.65" y1="890.59" x2="1660.51" y2="929.26"/><line class="cls-4" x1="1629.47" y1="966.25" x2="1597.33" y2="1004.92"/><line class="cls-4" x1="1375.82" y1="952.49" x2="1343.69" y2="991.17"/><line class="cls-4" x1="1312.71" y1="900.08" x2="1280.58" y2="938.76"/><line class="cls-4" x1="1375.64" y1="889.59" x2="1343.52" y2="928.27"/><line class="cls-4" x1="1312.5" y1="965.28" x2="1280.37" y2="1003.96"/><line class="cls-4" x1="1792.78" y1="1189.82" x2="1760.65" y2="1228.5"/><line class="cls-4" x1="1729.67" y1="1137.41" x2="1697.54" y2="1176.09"/><line class="cls-4" x1="1792.6" y1="1126.92" x2="1760.48" y2="1165.6"/><line class="cls-4" x1="1729.46" y1="1202.6" x2="1697.33" y2="1241.28"/><line class="cls-4" x1="726.45" y1="1017.07" x2="694.32" y2="1055.75"/><line class="cls-4" x1="663.33" y1="964.65" x2="631.21" y2="1003.34"/><line class="cls-4" x1="726.27" y1="954.17" x2="694.15" y2="992.85"/><line class="cls-4" x1="663.12" y1="1029.85" x2="631" y2="1068.53"/><line class="cls-4" x1="826.75" y1="1282.59" x2="794.63" y2="1321.27"/><line class="cls-4" x1="763.64" y1="1230.17" x2="731.52" y2="1268.85"/><line class="cls-4" x1="826.58" y1="1219.68" x2="794.45" y2="1258.36"/><line class="cls-4" x1="763.43" y1="1295.37" x2="731.31" y2="1334.05"/><line class="cls-4" x1="972.62" y1="750.59" x2="940.48" y2="789.25"/><line class="cls-4" x1="909.53" y1="698.15" x2="877.39" y2="736.81"/><line class="cls-4" x1="972.47" y1="687.68" x2="940.33" y2="726.35"/><line class="cls-4" x1="909.29" y1="763.34" x2="877.15" y2="802.01"/><line class="cls-4" x1="1072.6" y1="986.91" x2="1040.48" y2="1025.59"/><line class="cls-4" x1="1009.49" y1="934.5" x2="977.37" y2="973.18"/><line class="cls-4" x1="1072.43" y1="924.01" x2="1040.3" y2="962.69"/><line class="cls-4" x1="1009.28" y1="999.69" x2="977.16" y2="1038.37"/><line class="cls-4" x1="287.6" y1="1931.49" x2="255.47" y2="1970.17"/><line class="cls-4" x1="224.49" y1="1879.08" x2="192.36" y2="1917.76"/><line class="cls-4" x1="287.42" y1="1868.59" x2="255.3" y2="1907.27"/><line class="cls-4" x1="224.28" y1="1944.28" x2="192.15" y2="1982.96"/><line class="cls-4" x1="872.47" y1="1535.49" x2="840.33" y2="1574.16"/><line class="cls-4" x1="809.38" y1="1483.05" x2="777.24" y2="1521.72"/><line class="cls-4" x1="872.32" y1="1472.59" x2="840.18" y2="1511.26"/><line class="cls-4" x1="809.14" y1="1548.25" x2="777" y2="1586.92"/><line class="cls-4" x1="1041.45" y1="3277.82" x2="1009.32" y2="3316.5"/><line class="cls-4" x1="978.34" y1="3225.4" x2="946.21" y2="3264.08"/><line class="cls-4" x1="1041.27" y1="3214.91" x2="1009.15" y2="3253.59"/><line class="cls-4" x1="978.13" y1="3290.6" x2="946" y2="3329.28"/><line class="cls-4" x1="1346.14" y1="2011.11" x2="1314.02" y2="2049.79"/><line class="cls-4" x1="1283.03" y1="1958.7" x2="1250.9" y2="1997.38"/><line class="cls-4" x1="1345.97" y1="1948.21" x2="1313.84" y2="1986.89"/><line class="cls-4" x1="1282.82" y1="2023.9" x2="1250.7" y2="2062.58"/><line class="cls-4" x1="1009.78" y1="2068.08" x2="977.65" y2="2106.76"/><line class="cls-4" x1="946.66" y1="2015.66" x2="914.54" y2="2054.35"/><line class="cls-4" x1="1009.6" y1="2005.18" x2="977.48" y2="2043.86"/><line class="cls-4" x1="946.46" y1="2080.86" x2="914.33" y2="2119.54"/><line class="cls-4" x1="1592.32" y1="1744.63" x2="1560.18" y2="1783.3"/><line class="cls-4" x1="1529.23" y1="1692.19" x2="1497.09" y2="1730.86"/><line class="cls-4" x1="1592.17" y1="1681.73" x2="1560.03" y2="1720.39"/><line class="cls-4" x1="1528.99" y1="1757.39" x2="1496.85" y2="1796.05"/><line class="cls-4" x1="1275.34" y1="1743.63" x2="1243.21" y2="1782.31"/><line class="cls-4" x1="1212.22" y1="1691.21" x2="1180.1" y2="1729.89"/><line class="cls-4" x1="1275.16" y1="1680.72" x2="1243.04" y2="1719.4"/><line class="cls-4" x1="1212.02" y1="1756.41" x2="1179.89" y2="1795.09"/><line class="cls-4" x1="1692.3" y1="1980.95" x2="1660.17" y2="2019.63"/><line class="cls-4" x1="1629.19" y1="1928.54" x2="1597.06" y2="1967.22"/><line class="cls-4" x1="1692.12" y1="1918.05" x2="1660" y2="1956.73"/><line class="cls-4" x1="1628.98" y1="1993.74" x2="1596.85" y2="2032.42"/><line class="cls-4" x1="1934.41" y1="1722.17" x2="1902.28" y2="1760.85"/><line class="cls-4" x1="1871.29" y1="1669.76" x2="1839.17" y2="1708.44"/><line class="cls-4" x1="1934.23" y1="1659.27" x2="1902.11" y2="1697.95"/><line class="cls-4" x1="1871.09" y1="1734.96" x2="1838.96" y2="1773.64"/><line class="cls-4" x1="1844.4" y1="1478.11" x2="1812.27" y2="1516.79"/><line class="cls-4" x1="1781.29" y1="1425.7" x2="1749.16" y2="1464.38"/><line class="cls-4" x1="1844.22" y1="1415.21" x2="1812.1" y2="1453.89"/><line class="cls-4" x1="1781.08" y1="1490.89" x2="1748.95" y2="1529.57"/><line class="cls-4" x1="1950.62" y1="830.59" x2="1918.5" y2="869.27"/><line class="cls-4" x1="1950.41" y1="895.79" x2="1918.29" y2="934.47"/><line class="cls-4" x1="1270.28" y1="706.52" x2="1238.16" y2="745.2"/><line class="cls-4" x1="1207.17" y1="654.11" x2="1175.05" y2="692.79"/><line class="cls-4" x1="1270.11" y1="643.62" x2="1237.98" y2="682.3"/><line class="cls-4" x1="1206.96" y1="719.31" x2="1174.84" y2="757.99"/><line class="cls-4" x1="1574.95" y1="726.01" x2="1542.82" y2="764.69"/><line class="cls-4" x1="1511.83" y1="673.6" x2="1479.71" y2="712.28"/><line class="cls-4" x1="1574.77" y1="663.11" x2="1542.65" y2="701.79"/><line class="cls-4" x1="1511.62" y1="738.79" x2="1479.5" y2="777.47"/><line class="cls-4" x1="1922.24" y1="1938.04" x2="1890.12" y2="1976.72"/><line class="cls-4" x1="1922.03" y1="2003.24" x2="1889.91" y2="2041.92"/><line class="cls-4" x1="168.06" y1="-6.46" x2="135.94" y2="32.22"/><line class="cls-4" x1="104.74" y1="6.32" x2="72.62" y2="45"/><line class="cls-4" x1="268.37" y1="259.06" x2="236.25" y2="297.74"/><line class="cls-4" x1="205.26" y1="206.64" x2="173.13" y2="245.32"/><line class="cls-4" x1="268.2" y1="196.15" x2="236.07" y2="234.83"/><line class="cls-4" x1="205.05" y1="271.84" x2="172.93" y2="310.52"/><line class="cls-5" x1="544.62" y1="-11.38" x2="512.49" y2="27.31"/><line class="cls-5" x1="466.27" y1="-11.07" x2="434.15" y2="27.61"/><line class="cls-4" x1="67.58" y1="784.67" x2="35.46" y2="823.35"/><line class="cls-4" x1="4.47" y1="732.26" x2="-27.65" y2="770.94"/><line class="cls-4" x1="67.41" y1="721.77" x2="35.28" y2="760.45"/><line class="cls-4" x1="4.26" y1="797.46" x2="-27.86" y2="836.14"/><line class="cls-4" x1="313.76" y1="518.19" x2="281.62" y2="556.86"/><line class="cls-4" x1="250.67" y1="465.75" x2="218.53" y2="504.42"/><line class="cls-4" x1="313.61" y1="455.29" x2="281.47" y2="493.96"/><line class="cls-4" x1="250.43" y1="530.95" x2="218.29" y2="569.62"/><line class="cls-4" x1="-3.22" y1="517.19" x2="-35.35" y2="555.87"/><line class="cls-4" x1="-3.4" y1="454.29" x2="-35.52" y2="492.97"/><line class="cls-4" x1="368.74" y1="779.52" x2="336.62" y2="818.2"/><line class="cls-4" x1="305.63" y1="727.1" x2="273.5" y2="765.78"/><line class="cls-4" x1="368.57" y1="716.61" x2="336.44" y2="755.29"/><line class="cls-4" x1="305.42" y1="792.3" x2="273.29" y2="830.98"/><line class="cls-4" x1="655.85" y1="495.74" x2="623.72" y2="534.42"/><line class="cls-4" x1="592.74" y1="443.32" x2="560.61" y2="482"/><line class="cls-4" x1="655.67" y1="432.83" x2="623.55" y2="471.51"/><line class="cls-4" x1="592.53" y1="508.52" x2="560.4" y2="547.2"/><line class="cls-4" x1="565.84" y1="251.67" x2="533.71" y2="290.35"/><line class="cls-4" x1="502.73" y1="199.26" x2="470.6" y2="237.94"/><line class="cls-4" x1="565.66" y1="188.77" x2="533.54" y2="227.45"/><line class="cls-4" x1="502.52" y1="264.45" x2="470.39" y2="303.14"/><line class="cls-4" x1="668.79" y1="763.02" x2="636.67" y2="801.7"/><line class="cls-4" x1="605.68" y1="710.6" x2="573.56" y2="749.28"/><line class="cls-4" x1="668.62" y1="700.11" x2="636.49" y2="738.79"/><line class="cls-4" x1="605.47" y1="775.8" x2="573.35" y2="814.48"/><line class="cls-4" x1="1497.42" y1="119.28" x2="1465.29" y2="157.96"/><line class="cls-4" x1="1434.31" y1="66.87" x2="1402.18" y2="105.55"/><line class="cls-4" x1="1497.24" y1="56.38" x2="1465.12" y2="95.06"/><line class="cls-4" x1="1434.1" y1="132.07" x2="1401.97" y2="170.75"/><line class="cls-4" x1="1761.83" y1="143.42" x2="1729.7" y2="182.1"/><line class="cls-4" x1="1698.71" y1="91" x2="1666.59" y2="129.68"/><line class="cls-4" x1="1761.65" y1="80.51" x2="1729.53" y2="119.19"/><line class="cls-4" x1="1698.5" y1="156.2" x2="1666.38" y2="194.88"/><line class="cls-4" x1="1818.79" y1="468.74" x2="1786.66" y2="507.42"/><line class="cls-4" x1="1755.68" y1="416.33" x2="1723.55" y2="455.01"/><line class="cls-4" x1="1818.61" y1="405.84" x2="1786.49" y2="444.52"/><line class="cls-4" x1="1755.47" y1="481.53" x2="1723.34" y2="520.21"/><line class="cls-4" x1="110.42" y1="1100.28" x2="78.29" y2="1138.96"/><line class="cls-4" x1="47.31" y1="1047.87" x2="15.18" y2="1086.55"/><line class="cls-4" x1="110.24" y1="1037.38" x2="78.12" y2="1076.06"/><line class="cls-4" x1="47.1" y1="1113.07" x2="14.97" y2="1151.75"/><line class="cls-4" x1="92.63" y1="3191.9" x2="60.51" y2="3230.58"/><line class="cls-4" x1="29.52" y1="3139.49" x2="-2.61" y2="3178.17"/><line class="cls-4" x1="92.46" y1="3129" x2="60.33" y2="3167.68"/><line class="cls-4" x1="29.31" y1="3204.69" x2="-2.81" y2="3243.37"/><line class="cls-4" x1="155.81" y1="1359.42" x2="123.67" y2="1398.09"/><line class="cls-4" x1="92.72" y1="1306.98" x2="60.58" y2="1345.65"/><line class="cls-4" x1="155.66" y1="1296.52" x2="123.52" y2="1335.18"/><line class="cls-4" x1="92.48" y1="1372.18" x2="60.34" y2="1410.84"/><line class="cls-4" x1="1907.71" y1="2541" x2="1875.59" y2="2579.68"/><line class="cls-4" x1="1907.5" y1="2606.2" x2="1875.38" y2="2644.88"/><line class="cls-4" x1="255.79" y1="1595.74" x2="223.66" y2="1634.42"/><line class="cls-4" x1="192.68" y1="1543.33" x2="160.55" y2="1582.01"/><line class="cls-4" x1="255.61" y1="1532.84" x2="223.49" y2="1571.52"/><line class="cls-4" x1="192.47" y1="1608.53" x2="160.34" y2="1647.21"/><line class="cls-4" x1="497.9" y1="1336.96" x2="465.77" y2="1375.64"/><line class="cls-4" x1="434.78" y1="1284.55" x2="402.66" y2="1323.23"/><line class="cls-4" x1="497.72" y1="1274.06" x2="465.6" y2="1312.74"/><line class="cls-4" x1="434.57" y1="1349.75" x2="402.45" y2="1388.43"/><line class="cls-4" x1="407.89" y1="1092.9" x2="375.76" y2="1131.58"/><line class="cls-4" x1="344.78" y1="1040.49" x2="312.65" y2="1079.17"/><line class="cls-4" x1="407.71" y1="1030" x2="375.59" y2="1068.68"/><line class="cls-4" x1="344.57" y1="1105.68" x2="312.44" y2="1144.36"/><line class="cls-4" x1="564.36" y1="1598.36" x2="532.24" y2="1637.04"/><line class="cls-4" x1="501.25" y1="1545.94" x2="469.12" y2="1584.62"/><line class="cls-4" x1="564.19" y1="1535.45" x2="532.06" y2="1574.14"/><line class="cls-4" x1="501.04" y1="1611.14" x2="468.92" y2="1649.82"/><line class="cls-4" x1="617.36" y1="1874.36" x2="585.24" y2="1913.04"/><line class="cls-4" x1="554.25" y1="1821.94" x2="522.12" y2="1860.62"/><line class="cls-4" x1="617.19" y1="1811.45" x2="585.06" y2="1850.14"/><line class="cls-4" x1="554.04" y1="1887.14" x2="521.92" y2="1925.82"/><line class="cls-4" x1="700.36" y1="2099.36" x2="668.24" y2="2138.04"/><line class="cls-4" x1="637.25" y1="2046.94" x2="605.12" y2="2085.62"/><line class="cls-4" x1="700.19" y1="2036.45" x2="668.06" y2="2075.14"/><line class="cls-4" x1="637.04" y1="2112.14" x2="604.92" y2="2150.82"/><line class="cls-4" x1="875.36" y1="231.85" x2="843.24" y2="270.53"/><line class="cls-4" x1="812.25" y1="179.43" x2="780.12" y2="218.11"/><line class="cls-4" x1="875.19" y1="168.94" x2="843.06" y2="207.62"/><line class="cls-4" x1="812.04" y1="244.63" x2="779.92" y2="283.31"/><line class="cls-4" x1="918.36" y1="492.85" x2="886.24" y2="531.53"/><line class="cls-4" x1="855.25" y1="440.43" x2="823.12" y2="479.11"/><line class="cls-4" x1="918.19" y1="429.94" x2="886.06" y2="468.62"/><line class="cls-4" x1="855.04" y1="505.63" x2="822.92" y2="544.31"/><line class="cls-4" x1="1226.36" y1="412.85" x2="1194.24" y2="451.53"/><line class="cls-4" x1="1163.25" y1="360.43" x2="1131.12" y2="399.11"/><line class="cls-4" x1="1226.19" y1="349.94" x2="1194.06" y2="388.62"/><line class="cls-4" x1="1163.04" y1="425.63" x2="1130.92" y2="464.31"/><line class="cls-4" x1="1898.36" y1="724.85" x2="1866.24" y2="763.53"/><line class="cls-4" x1="1835.25" y1="672.43" x2="1803.12" y2="711.11"/><line class="cls-4" x1="1898.19" y1="661.94" x2="1866.06" y2="700.62"/><line class="cls-4" x1="1835.04" y1="737.63" x2="1802.92" y2="776.31"/><line class="cls-4" x1="1228.36" y1="118.85" x2="1196.24" y2="157.53"/><line class="cls-4" x1="1165.25" y1="66.43" x2="1133.12" y2="105.11"/><line class="cls-4" x1="1228.19" y1="55.94" x2="1196.06" y2="94.62"/><line class="cls-4" x1="1165.04" y1="131.63" x2="1132.92" y2="170.31"/><line class="cls-4" x1="1515.36" y1="410.85" x2="1483.24" y2="449.53"/><line class="cls-4" x1="1452.25" y1="358.43" x2="1420.12" y2="397.11"/><line class="cls-4" x1="1515.19" y1="347.94" x2="1483.06" y2="386.62"/><line class="cls-4" x1="1452.04" y1="423.63" x2="1419.92" y2="462.31"/><line class="cls-4" x1="376.38" y1="2155.61" x2="344.26" y2="2194.29"/><line class="cls-4" x1="313.27" y1="2103.2" x2="281.15" y2="2141.88"/><line class="cls-4" x1="376.21" y1="2092.71" x2="344.08" y2="2131.39"/><line class="cls-4" x1="313.06" y1="2168.4" x2="280.94" y2="2207.08"/><line class="cls-4" x1="1097.38" y1="2310.61" x2="1065.26" y2="2349.29"/><line class="cls-4" x1="1034.27" y1="2258.2" x2="1002.15" y2="2296.88"/><line class="cls-4" x1="1097.21" y1="2247.71" x2="1065.08" y2="2286.39"/><line class="cls-4" x1="1034.06" y1="2323.4" x2="1001.94" y2="2362.08"/><line class="cls-4" x1="439.38" y1="2413.61" x2="407.26" y2="2452.29"/><line class="cls-4" x1="376.27" y1="2361.2" x2="344.15" y2="2399.88"/><line class="cls-4" x1="439.21" y1="2350.71" x2="407.08" y2="2389.39"/><line class="cls-4" x1="376.06" y1="2426.4" x2="343.94" y2="2465.08"/><line class="cls-4" x1="766.38" y1="2381.61" x2="734.26" y2="2420.29"/><line class="cls-4" x1="703.27" y1="2329.2" x2="671.15" y2="2367.88"/><line class="cls-4" x1="766.21" y1="2318.71" x2="734.08" y2="2357.39"/><line class="cls-4" x1="703.06" y1="2394.4" x2="670.94" y2="2433.08"/><line class="cls-4" x1="124.38" y1="2467.61" x2="92.26" y2="2506.29"/><line class="cls-4" x1="61.27" y1="2415.2" x2="29.15" y2="2453.88"/><line class="cls-4" x1="124.21" y1="2404.71" x2="92.08" y2="2443.39"/><line class="cls-4" x1="61.06" y1="2480.4" x2="28.94" y2="2519.08"/><line class="cls-4" x1="1465.97" y1="2286.28" x2="1433.84" y2="2324.96"/><line class="cls-4" x1="1402.86" y1="2233.87" x2="1370.73" y2="2272.55"/><line class="cls-4" x1="1465.79" y1="2223.38" x2="1433.67" y2="2262.06"/><line class="cls-4" x1="1402.65" y1="2299.06" x2="1370.52" y2="2337.74"/><line class="cls-4" x1="1776.38" y1="2304.61" x2="1744.26" y2="2343.29"/><line class="cls-4" x1="1713.27" y1="2252.2" x2="1681.15" y2="2290.88"/><line class="cls-4" x1="1776.21" y1="2241.71" x2="1744.08" y2="2280.39"/><line class="cls-4" x1="1713.06" y1="2317.4" x2="1680.94" y2="2356.08"/><line class="cls-4" x1="1167.38" y1="2650.66" x2="1135.26" y2="2689.34"/><line class="cls-4" x1="1104.27" y1="2598.24" x2="1072.15" y2="2636.92"/><line class="cls-4" x1="1167.21" y1="2587.75" x2="1135.08" y2="2626.43"/><line class="cls-4" x1="1104.06" y1="2663.44" x2="1071.94" y2="2702.12"/><line class="cls-4" x1="1578.38" y1="2612.66" x2="1546.26" y2="2651.34"/><line class="cls-4" x1="1515.27" y1="2560.24" x2="1483.15" y2="2598.92"/><line class="cls-4" x1="1578.21" y1="2549.75" x2="1546.08" y2="2588.43"/><line class="cls-4" x1="1515.06" y1="2625.44" x2="1482.94" y2="2664.12"/><line class="cls-4" x1="795.38" y1="2676.66" x2="763.26" y2="2715.34"/><line class="cls-4" x1="732.27" y1="2624.24" x2="700.15" y2="2662.92"/><line class="cls-4" x1="795.21" y1="2613.75" x2="763.08" y2="2652.43"/><line class="cls-4" x1="732.06" y1="2689.44" x2="699.94" y2="2728.12"/><line class="cls-4" x1="430.38" y1="2785.66" x2="398.26" y2="2824.34"/><line class="cls-4" x1="367.27" y1="2733.24" x2="335.15" y2="2771.92"/><line class="cls-4" x1="430.21" y1="2722.75" x2="398.08" y2="2761.43"/><line class="cls-4" x1="367.06" y1="2798.44" x2="334.94" y2="2837.12"/><line class="cls-4" x1="1761.38" y1="2910.66" x2="1729.26" y2="2949.34"/><line class="cls-4" x1="1698.27" y1="2858.24" x2="1666.15" y2="2896.92"/><line class="cls-4" x1="1761.21" y1="2847.75" x2="1729.08" y2="2886.43"/><line class="cls-4" x1="1698.06" y1="2923.44" x2="1665.94" y2="2962.12"/><line class="cls-4" x1="887.38" y1="2982.66" x2="855.26" y2="3021.34"/><line class="cls-4" x1="824.27" y1="2930.24" x2="792.15" y2="2968.92"/><line class="cls-4" x1="887.21" y1="2919.75" x2="855.08" y2="2958.43"/><line class="cls-4" x1="824.06" y1="2995.44" x2="791.94" y2="3034.12"/><line class="cls-4" x1="1363.38" y1="2889.66" x2="1331.26" y2="2928.34"/><line class="cls-4" x1="1300.27" y1="2837.24" x2="1268.15" y2="2875.92"/><line class="cls-4" x1="1363.21" y1="2826.75" x2="1331.08" y2="2865.43"/><line class="cls-4" x1="1300.06" y1="2902.44" x2="1267.94" y2="2941.12"/><line class="cls-4" x1="471.38" y1="3131.34" x2="439.26" y2="3170.02"/><line class="cls-4" x1="408.27" y1="3078.92" x2="376.15" y2="3117.6"/><line class="cls-4" x1="471.21" y1="3068.43" x2="439.08" y2="3107.11"/><line class="cls-4" x1="408.06" y1="3144.12" x2="375.94" y2="3182.8"/><line class="cls-4" x1="960.38" y1="1744.34" x2="928.26" y2="1783.02"/><line class="cls-4" x1="897.27" y1="1691.92" x2="865.15" y2="1730.6"/><line class="cls-4" x1="960.21" y1="1681.43" x2="928.08" y2="1720.11"/><line class="cls-4" x1="897.06" y1="1757.12" x2="864.94" y2="1795.8"/><line class="cls-4" x1="1450.38" y1="3284.34" x2="1418.26" y2="3323.02"/><line class="cls-4" x1="1387.27" y1="3231.92" x2="1355.15" y2="3270.6"/><line class="cls-4" x1="1450.21" y1="3221.43" x2="1418.08" y2="3260.11"/><line class="cls-4" x1="1387.06" y1="3297.12" x2="1354.94" y2="3335.8"/><line class="cls-4" x1="1860.38" y1="3238.34" x2="1828.26" y2="3277.02"/><line class="cls-4" x1="1797.27" y1="3185.92" x2="1765.15" y2="3224.6"/><line class="cls-4" x1="1860.21" y1="3175.43" x2="1828.08" y2="3214.11"/><line class="cls-4" x1="1797.06" y1="3251.12" x2="1764.94" y2="3289.8"/><line class="cls-4" x1="464.27" y1="3362.92" x2="432.15" y2="3401.6"/><line class="cls-4" x1="527.21" y1="3352.43" x2="495.08" y2="3391.11"/></g></svg>
