<svg id="Layer_1" data-name="Layer 1" xmlns="http://www.w3.org/2000/svg" viewBox="0 0 121 136"><defs><style>.cls-1,.cls-3{fill:#fff;}.cls-1{stroke:#fff;stroke-miterlimit:10;}.cls-2{fill:#6b710f;}</style></defs><title>orangee</title><path class="cls-1" d="M4.74,90.8a145.59,145.59,0,0,0,9,17.64c3.32,5.56,7.07,11.09,11.8,15.57a40.16,40.16,0,0,0,16.26,9.67c6.79,1.95,13.58,1.07,20.31-.62,3.43-.86,6.84-1.85,10.34-2.44,3.28-.56,6.62-.66,9.9-1.33a39.27,39.27,0,0,0,16.53-7.48,58.85,58.85,0,0,0,10.21-11.22,43.43,43.43,0,0,0,3.94-6.24,41.79,41.79,0,0,0,2.68-8A101.06,101.06,0,0,0,118.49,79c.23-2.94.4-5.87.61-8.81.24-3.4.83-6.88.66-10.29-.26-5.15-3.24-9.33-6.12-13.4a72,72,0,0,0-4.42-5.72,33.37,33.37,0,0,0-6.11-5c-4.69-3.32-9.72-6.11-14.42-9.42-2.44-1.71-4.73-3.62-7.3-5.16C79,19.76,76.52,18.47,74,17.29a26.57,26.57,0,0,0-8.5-2.8A19.23,19.23,0,0,0,56,16.33c-2.86,1.23-5.54,2.81-8.34,4.16S42.17,23,39.51,24.42A82,82,0,0,0,12.37,48.65,79.51,79.51,0,0,0,3.7,64.27,29,29,0,0,0,1.7,81a61.7,61.7,0,0,0,2.66,9.36,3.24,3.24,0,0,0,3.89,2.21,3.18,3.18,0,0,0,2.21-3.89A61.7,61.7,0,0,1,7.8,79.3a6.12,6.12,0,0,0-.11-.71c-.18-1.11,0,.57-.07-.53q-.09-.84-.12-1.68V73.74a2.32,2.32,0,0,1,.06-.64c0,.3,0,.26,0-.13.86-5.23,3.26-9.92,5.87-14.5a74.77,74.77,0,0,1,29.19-28.7c2.65-1.45,5.42-2.61,8.14-3.93s5.25-2.86,8-4a13,13,0,0,1,6.67-1.1,12.42,12.42,0,0,1,2,.49c.35.12.71.26,1.06.4.06,0,.89.37.28.11,1.12.49,2.23,1,3.33,1.54a76.82,76.82,0,0,1,7.12,3.91c2.45,1.54,4.51,3.31,7,5,2.23,1.54,4.52,3,6.81,4.4s4.68,2.95,6.94,4.55a26.42,26.42,0,0,1,4.82,4c.35.4.68.8,1,1.21.14.16.89,1.14.58.73.76,1,1.49,2,2.21,3,1.21,1.74,2.39,3.51,3.45,5.35a9,9,0,0,1,1.46,5.66c-.07,3.27-.51,6.55-.74,9.81-.19,2.77-.35,5.54-.58,8.31s-.46,5.07-.84,7.4c-.46,2.81-1.07,5.6-1.79,8.35-.41,1.53-.82,3.06-1.3,4.56-.07.21-.55,1.38-.21.62-.21.47-.43.94-.67,1.4a51.23,51.23,0,0,1-8.28,11.28,41.89,41.89,0,0,1-4.73,4.5c.64-.51-.28.18-.45.29-.59.4-1.19.77-1.8,1.14A35.21,35.21,0,0,1,87.78,121a37.82,37.82,0,0,1-7.86,2.28c-3.06.57-6.21.66-9.34,1.21-6.5,1.14-12.79,3.76-19.44,4a27.23,27.23,0,0,1-15.55-4.6,44.19,44.19,0,0,1-12-11.92A122.37,122.37,0,0,1,14,95.74c-1.33-2.66-2.59-5.37-3.76-8.13-.67-1.58-3-1.92-4.33-1.14A3.25,3.25,0,0,0,4.74,90.8Z"/><path class="cls-2" d="M63.42,21c-2.57-5.27-8.84-8.15-15-9.09s-12.37-.38-18.53-.9S17.29,8.62,13.56,4c.33,6,1,12.59,5.77,16.55,4.36,3.61,10.76,3.81,16.59,3.81,4.65,0,9.36,0,13.82-1.23,3.77-1,9.82-2.42,13.76-2.38"/><path class="cls-2" d="M64.26,20.55c-3-5.83-9.62-8.67-15.77-9.58-8-1.2-16.34.18-24.26-1.85a18.58,18.58,0,0,1-10-5.81A1,1,0,0,0,12.58,4c.22,3.93.54,8,2.07,11.65a14.33,14.33,0,0,0,8,7.93c3.94,1.59,8.34,1.74,12.54,1.76,5,0,10,0,14.86-1.27,4.38-1.16,8.94-2.34,13.5-2.34a1,1,0,0,0,0-2,48.4,48.4,0,0,0-11.2,1.69c-2,.48-3.95,1.08-6,1.4a50.21,50.21,0,0,1-7.14.5c-7.54.12-17.66.73-22-6.88C15.09,12.73,14.78,8.22,14.53,4l-1.67.69c4.31,5.19,11.36,6.93,17.81,7.39,7.88.57,16.17-.57,23.68,2.46a15.34,15.34,0,0,1,8.22,7c.57,1.13,2.26.14,1.69-1Z"/><path class="cls-2" d="M64.67,20c.51-4,1.19-8.43,2-12.68a2.25,2.25,0,1,0-4.34-1.19Q61,13.06,60.17,20a2.26,2.26,0,0,0,2.25,2.25A2.31,2.31,0,0,0,64.67,20Z"/><path class="cls-3" d="M36.83,114.1a28.29,28.29,0,0,0,7.72,3.79,1.51,1.51,0,0,0,1.84-1,1.53,1.53,0,0,0-1-1.85c-.67-.2-1.33-.44-2-.7l-.24-.1h0l-.36-.16-1-.44a27.82,27.82,0,0,1-3.48-2.08,1.5,1.5,0,0,0-2.05.54,1.53,1.53,0,0,0,.54,2Z"/><path class="cls-3" d="M31.65,103.54a12.22,12.22,0,0,0,5.47,5.15,1.64,1.64,0,0,0,1.15.15,1.56,1.56,0,0,0,.9-.69,1.52,1.52,0,0,0-.54-2.05,11.92,11.92,0,0,1-1.48-.83l-.31-.22s-.19-.13-.19-.14.32.25.09.07-.43-.36-.64-.56a7.66,7.66,0,0,1-.57-.57c-.06-.06-.58-.59-.55-.64s.25.32.07.08l-.11-.15c-.09-.13-.18-.25-.26-.38s-.3-.48-.44-.73a1.51,1.51,0,0,0-2.05-.54,1.53,1.53,0,0,0-.54,2.05Z"/><path class="cls-3" d="M45.66,112.19a30.5,30.5,0,0,0,9.53,2,1.5,1.5,0,0,0,0-3,27.75,27.75,0,0,1-8.73-1.86,1.51,1.51,0,0,0-1.85,1,1.56,1.56,0,0,0,1,1.85Z"/><path class="cls-3" d="M41.14,104.39A27.85,27.85,0,0,0,48,107.53a1.5,1.5,0,1,0,.79-2.89c-.56-.17-1.12-.36-1.67-.57l-.43-.17c-.07,0-.55-.22-.19-.07l-.75-.34a26.59,26.59,0,0,1-3.1-1.69,1.51,1.51,0,0,0-2,.54,1.53,1.53,0,0,0,.54,2Z"/><path class="cls-3" d="M23.19,93.3l2,3.75a1.51,1.51,0,0,0,2.05.54,1.53,1.53,0,0,0,.54-2l-2-3.75a1.51,1.51,0,0,0-2.05-.54,1.53,1.53,0,0,0-.54,2Z"/><path class="cls-3" d="M32.81,95a8.23,8.23,0,0,0,2.29,2.15,7.17,7.17,0,0,0,2.66,1A1.62,1.62,0,0,0,38.92,98a1.48,1.48,0,0,0,.53-2,1.41,1.41,0,0,0-.89-.69,6.25,6.25,0,0,1-1.46-.42l.36.16a6.49,6.49,0,0,1-1.41-.84l.3.24a6.37,6.37,0,0,1-1.07-1.07l.23.3-.11-.15a1.64,1.64,0,0,0-.9-.69,1.5,1.5,0,0,0-1.84,1A1.43,1.43,0,0,0,32.81,95Z"/><path class="cls-3" d="M66.52,115.88l4.37-1.24a1.5,1.5,0,0,0-.8-2.89L65.72,113a1.5,1.5,0,0,0,.8,2.9Z"/><path class="cls-3" d="M54.43,106a18.52,18.52,0,0,0,6.92-.25,1.5,1.5,0,0,0,1-1.84,1.53,1.53,0,0,0-1.84-1.05l-.74.16-.4.06-.12,0c-.17,0-.15,0,.05,0a2.61,2.61,0,0,1-.69.07l-.76,0a14,14,0,0,1-1.45,0l-.7,0-.34,0-.24,0h.06a1.61,1.61,0,0,0-1.16.15,1.5,1.5,0,0,0,.36,2.74Z"/><path class="cls-3" d="M46,95.93a8.35,8.35,0,0,0,6.83,2.51A1.68,1.68,0,0,0,53.87,98a1.52,1.52,0,0,0,.44-1.06c0-.74-.67-1.6-1.5-1.5a7,7,0,0,1-1.52,0l.14,0-.18,0-.4-.08c-.24-.06-.49-.13-.73-.21L49.79,95l.11,0L49.74,95a5.32,5.32,0,0,1-.66-.37l-.34-.22-.14-.11s.24.2.09.07-.4-.35-.59-.55a1.51,1.51,0,0,0-2.12,0,1.53,1.53,0,0,0,0,2.12Z"/></svg>
